<svg xmlns="http://www.w3.org/2000/svg" viewBox="0 0 1200 900">
  <defs><linearGradient id="t" x1="0" y1="0" x2="1" y2="1"><stop offset="0" stop-color="#cfc6b8"/><stop offset="1" stop-color="#a99d8b"/></linearGradient>
  <filter id="s" x="-10%" y="-10%" width="120%" height="130%"><feDropShadow dx="0" dy="18" stdDeviation="22" flood-opacity="0.28"/></filter></defs>
  <rect width="1200" height="900" fill="url(#t)"/>
  <g transform="rotate(-4 600 450)" filter="url(#s)">
    <rect x="190" y="215" width="820" height="470" rx="14" fill="#1e2a2f"/>
    <rect x="190" y="215" width="18" height="470" fill="#d7a96b"/>
    <text x="260" y="330" font-family="Helvetica, Arial, sans-serif" font-size="54" font-weight="700" fill="#f2f1ec">Priya Raman</text>
    <text x="260" y="378" font-family="Helvetica, Arial, sans-serif" font-size="28" fill="#f2f1ec" opacity="0.7">Principal</text>
    <text x="260" y="420" font-family="Helvetica, Arial, sans-serif" font-size="28" font-weight="600" fill="#d7a96b">Studio Raman</text>
    <text x="260" y="560" font-family="Helvetica, Arial, sans-serif" font-size="26" fill="#f2f1ec">+971 55 555 0193</text>
    <text x="260" y="600" font-family="Helvetica, Arial, sans-serif" font-size="26" fill="#f2f1ec">priya@studioraman.example</text>
    <g fill="#f2f1ec" transform="translate(830 470)">
      <rect width="130" height="130" fill="none" stroke="#f2f1ec" stroke-width="8"/>
      <rect x="18" y="18" width="30" height="30"/><rect x="82" y="18" width="30" height="30"/><rect x="18" y="82" width="30" height="30"/>
      <rect x="60" y="56" width="14" height="14"/><rect x="88" y="72" width="14" height="14"/><rect x="62" y="96" width="14" height="14"/><rect x="96" y="100" width="14" height="14"/>
    </g>
  </g>
</svg>
